<svg xmlns="http://www.w3.org/2000/svg" viewBox="0 0 229.84 74.54"><defs><style>.cls-1,.cls-2{fill:#201600;}.cls-1{fill-rule:evenodd;}</style></defs><title>—лой 1</title><g id="Слой_2" data-name="Слой 2"><g id="_лой_1" data-name="—лой 1"><polygon class="cls-1" points="127.94 59.95 123.94 70.98 0 65.57 2.08 59.95 127.94 59.95"/><polygon class="cls-1" points="210.99 59.95 205.59 74.54 133.84 71.41 138.01 59.95 210.99 59.95"/><polygon class="cls-1" points="24.25 0 229.84 8.98 227.95 14.09 19.04 14.09 24.25 0"/><path class="cls-2" d="M51.94,50.61H17.25c-8.81,0-10.19-3.87-7.07-12.46L16.07,22H26.12L20.78,36.64c-1.53,4.19-1.74,5.21,2.61,5.21H27L34.2,22h10L37,41.85h8.09L52.32,22H87c8.8,0,10.19,3.87,7.06,12.46L88.19,50.61h-10l5.34-14.67c1.52-4.19,1.74-5.21-2.62-5.21H77.31L70.07,50.61H60l7.24-19.88H59.18Z"/><path class="cls-2" d="M127.92,50.61l6.17-16.18c3.28-8.59,2-12.46-6.85-12.46H101.86L95.69,38.15c-3.28,8.59-2,12.46,6.85,12.46ZM108.57,30.73h12.78c2.81,0,3.86.57,2.75,3.49l-2.88,7.63H108.53c-3.54,0-3.83-1-2.67-4Z"/><path class="cls-2" d="M144.6,41.86l4.05-11.13H158c4.35,0,4.14,1,2.62,5.21l-.71,1.94c-1.46,3.49-1.88,4-7.64,4Zm-3.19,8.75h13.84c8-.6,11.71-4.58,14.42-12l1.51-4.16c3.13-8.59,1.74-12.46-7.07-12.46H141.79L127.94,60H138Z"/><path class="cls-1" d="M194.79,39.47,205.4,26.88c2.44-2.9,6.65-6,10.73-5.57,5.54.64,7,5.07,5.54,9.3l-7.27,20h-10L210,35.11l-8.92,10.62c-4.08,4.85-7.44,6.21-10.58,5.72s-4.55-4.61-5.11-8.56l-1.25-8.78-6,16.5h-10l8-21.95c1.43-3.76,4.56-6.84,8.38-7.23,4.32-.43,7.87.94,8.72,6.89Z"/><path class="cls-1" d="M220.91,59.78"/></g></g></svg>